<mxfile host="app.diagrams.net" agent="Mozilla/5.0 (X11; Linux x86_64) AppleWebKit/537.36 (KHTML, like Gecko) Chrome/129.0.0.0 Safari/537.36" version="24.8.2">
  <diagram name="Page-1" id="m---_6C_hGaj8hvCDt1C">
    <mxGraphModel dx="2514" dy="893" grid="1" gridSize="10" guides="1" tooltips="1" connect="1" arrows="1" fold="1" page="1" pageScale="1" pageWidth="827" pageHeight="1169" math="0" shadow="0">
      <root>
        <mxCell id="0" />
        <mxCell id="1" parent="0" />
        <mxCell id="Q1R0QLJVoFyFUahoe8BN-34" style="edgeStyle=orthogonalEdgeStyle;rounded=0;orthogonalLoop=1;jettySize=auto;html=1;" parent="1" source="Q1R0QLJVoFyFUahoe8BN-4" target="Q1R0QLJVoFyFUahoe8BN-21" edge="1">
          <mxGeometry relative="1" as="geometry" />
        </mxCell>
        <mxCell id="Q1R0QLJVoFyFUahoe8BN-4" value="&lt;font style=&quot;font-size: 17px;&quot;&gt;&lt;b&gt;BANKS&lt;/b&gt;&lt;/font&gt;" style="rounded=0;whiteSpace=wrap;html=1;" parent="1" vertex="1">
          <mxGeometry x="890" y="750" width="200" height="70" as="geometry" />
        </mxCell>
        <mxCell id="Q1R0QLJVoFyFUahoe8BN-33" style="edgeStyle=orthogonalEdgeStyle;rounded=0;orthogonalLoop=1;jettySize=auto;html=1;entryX=0;entryY=0.5;entryDx=0;entryDy=0;" parent="1" target="Q1R0QLJVoFyFUahoe8BN-21" edge="1">
          <mxGeometry relative="1" as="geometry">
            <mxPoint x="740" y="955" as="sourcePoint" />
          </mxGeometry>
        </mxCell>
        <mxCell id="Q1R0QLJVoFyFUahoe8BN-6" value="&lt;font style=&quot;font-size: 17px;&quot;&gt;&lt;b&gt;REPORTING AND ANALYSIS&lt;/b&gt;&lt;/font&gt;" style="rounded=0;whiteSpace=wrap;html=1;" parent="1" vertex="1">
          <mxGeometry x="110" y="915" width="220" height="80" as="geometry" />
        </mxCell>
        <mxCell id="Q1R0QLJVoFyFUahoe8BN-8" value="&lt;font style=&quot;font-size: 17px;&quot;&gt;&lt;b&gt;USER INTERFACE AND EXPERIENCE&lt;/b&gt;&lt;/font&gt;" style="rounded=0;whiteSpace=wrap;html=1;" parent="1" vertex="1">
          <mxGeometry x="890" y="1090" width="200" height="70" as="geometry" />
        </mxCell>
        <mxCell id="Q1R0QLJVoFyFUahoe8BN-25" style="edgeStyle=orthogonalEdgeStyle;rounded=0;orthogonalLoop=1;jettySize=auto;html=1;entryX=0.5;entryY=0;entryDx=0;entryDy=0;" parent="1" source="Q1R0QLJVoFyFUahoe8BN-19" target="Q1R0QLJVoFyFUahoe8BN-22" edge="1">
          <mxGeometry relative="1" as="geometry" />
        </mxCell>
        <mxCell id="Q1R0QLJVoFyFUahoe8BN-26" style="edgeStyle=orthogonalEdgeStyle;rounded=0;orthogonalLoop=1;jettySize=auto;html=1;" parent="1" source="Q1R0QLJVoFyFUahoe8BN-19" target="Q1R0QLJVoFyFUahoe8BN-23" edge="1">
          <mxGeometry relative="1" as="geometry" />
        </mxCell>
        <mxCell id="Q1R0QLJVoFyFUahoe8BN-19" value="&lt;font style=&quot;font-size: 17px;&quot;&gt;&lt;b&gt;BURSARY&lt;/b&gt;&lt;/font&gt;" style="rounded=0;whiteSpace=wrap;html=1;" parent="1" vertex="1">
          <mxGeometry x="510" y="450" width="200" height="70" as="geometry" />
        </mxCell>
        <mxCell id="Q1R0QLJVoFyFUahoe8BN-35" style="edgeStyle=orthogonalEdgeStyle;rounded=0;orthogonalLoop=1;jettySize=auto;html=1;entryX=0.5;entryY=0;entryDx=0;entryDy=0;" parent="1" source="Q1R0QLJVoFyFUahoe8BN-21" target="Q1R0QLJVoFyFUahoe8BN-8" edge="1">
          <mxGeometry relative="1" as="geometry" />
        </mxCell>
        <mxCell id="Q1R0QLJVoFyFUahoe8BN-21" value="&lt;font style=&quot;font-size: 17px;&quot;&gt;&lt;b&gt;STUDENTS&lt;/b&gt;&lt;/font&gt;" style="rounded=0;whiteSpace=wrap;html=1;" parent="1" vertex="1">
          <mxGeometry x="890" y="920" width="200" height="70" as="geometry" />
        </mxCell>
        <mxCell id="Q1R0QLJVoFyFUahoe8BN-28" style="edgeStyle=orthogonalEdgeStyle;rounded=0;orthogonalLoop=1;jettySize=auto;html=1;entryX=0.5;entryY=0;entryDx=0;entryDy=0;" parent="1" source="Q1R0QLJVoFyFUahoe8BN-22" target="Q1R0QLJVoFyFUahoe8BN-24" edge="1">
          <mxGeometry relative="1" as="geometry" />
        </mxCell>
        <mxCell id="Q1R0QLJVoFyFUahoe8BN-22" value="&lt;font style=&quot;font-size: 17px;&quot;&gt;&lt;b&gt;FEE STRUCTURE CONFIGURATION&lt;/b&gt;&lt;/font&gt;" style="rounded=0;whiteSpace=wrap;html=1;" parent="1" vertex="1">
          <mxGeometry x="120" y="585" width="200" height="70" as="geometry" />
        </mxCell>
        <mxCell id="Q1R0QLJVoFyFUahoe8BN-27" style="edgeStyle=orthogonalEdgeStyle;rounded=0;orthogonalLoop=1;jettySize=auto;html=1;" parent="1" source="Q1R0QLJVoFyFUahoe8BN-23" target="Q1R0QLJVoFyFUahoe8BN-4" edge="1">
          <mxGeometry relative="1" as="geometry" />
        </mxCell>
        <mxCell id="Q1R0QLJVoFyFUahoe8BN-23" value="&lt;font style=&quot;font-size: 17px;&quot;&gt;&lt;b&gt;FEE COLLECTION AND PAYMENT&lt;/b&gt;&lt;/font&gt;" style="rounded=0;whiteSpace=wrap;html=1;" parent="1" vertex="1">
          <mxGeometry x="890" y="585" width="200" height="70" as="geometry" />
        </mxCell>
        <mxCell id="Q1R0QLJVoFyFUahoe8BN-29" style="edgeStyle=orthogonalEdgeStyle;rounded=0;orthogonalLoop=1;jettySize=auto;html=1;" parent="1" source="Q1R0QLJVoFyFUahoe8BN-24" target="Q1R0QLJVoFyFUahoe8BN-6" edge="1">
          <mxGeometry relative="1" as="geometry" />
        </mxCell>
        <mxCell id="Q1R0QLJVoFyFUahoe8BN-24" value="&lt;font style=&quot;font-size: 17px;&quot;&gt;&lt;b&gt;FEE RECORDS MANAGEMENT&lt;/b&gt;&lt;/font&gt;" style="rounded=0;whiteSpace=wrap;html=1;" parent="1" vertex="1">
          <mxGeometry x="120" y="750" width="200" height="70" as="geometry" />
        </mxCell>
        <mxCell id="Q1R0QLJVoFyFUahoe8BN-30" style="edgeStyle=orthogonalEdgeStyle;rounded=0;orthogonalLoop=1;jettySize=auto;html=1;" parent="1" source="Q1R0QLJVoFyFUahoe8BN-6" edge="1">
          <mxGeometry relative="1" as="geometry">
            <mxPoint x="480" y="955" as="targetPoint" />
          </mxGeometry>
        </mxCell>
        <mxCell id="Q1R0QLJVoFyFUahoe8BN-36" value="&lt;font size=&quot;1&quot; style=&quot;&quot;&gt;&lt;b style=&quot;font-size: 44px;&quot;&gt;HIGH LEVEL MODEL DIAGRAM OF THE PROPOSED SYSTEM&lt;/b&gt;&lt;/font&gt;" style="text;html=1;align=center;verticalAlign=middle;resizable=0;points=[];autosize=1;strokeColor=none;fillColor=none;" parent="1" vertex="1">
          <mxGeometry x="-50" y="300" width="1310" height="70" as="geometry" />
        </mxCell>
        <mxCell id="UBcUZRS8XqBkenuh3815-1" value="" style="shape=partialRectangle;whiteSpace=wrap;html=1;top=0;bottom=0;fillColor=none;rotation=-90;" vertex="1" parent="1">
          <mxGeometry x="572" y="850" width="81" height="210" as="geometry" />
        </mxCell>
        <mxCell id="UBcUZRS8XqBkenuh3815-3" value="&lt;font style=&quot;font-size: 16px;&quot;&gt;&lt;b&gt;CENTRALIZED&lt;/b&gt;&lt;/font&gt;&lt;div&gt;&lt;font style=&quot;font-size: 16px;&quot;&gt;&lt;b&gt;FEE&lt;/b&gt;&lt;/font&gt;&lt;/div&gt;&lt;div&gt;&lt;font style=&quot;font-size: 16px;&quot;&gt;&lt;b&gt;DATABASE&lt;/b&gt;&lt;/font&gt;&lt;/div&gt;" style="text;html=1;align=center;verticalAlign=middle;resizable=0;points=[];autosize=1;strokeColor=none;fillColor=none;" vertex="1" parent="1">
          <mxGeometry x="540" y="921" width="140" height="70" as="geometry" />
        </mxCell>
      </root>
    </mxGraphModel>
  </diagram>
</mxfile>
